<!-- Uploaded to: SVG Repo, www.svgrepo.com, Transformed by: SVG Repo Mixer Tools -->
<svg xmlns="http://www.w3.org/2000/svg" aria-label="Arch Linux" role="img" viewBox="0 0 512.00 512.00" width="256px" height="256px" fill="#88C0D0" stroke="#88C0D0" stroke-width="0.00512">

<g id="SVGRepo_bgCarrier" stroke-width="0"/>

<g id="SVGRepo_tracerCarrier" stroke-linecap="round" stroke-linejoin="round" stroke="#CCCCCC" stroke-width="14.336000000000002"/>

<g id="SVGRepo_iconCarrier">

<path d="M256 72c-14 35-23 57-39 91 10 11 22 23 41 36-21-8-35-17-45-26-21 43-53 103-117 220 50-30 90-48 127-55-2-7-3-14-3-22v-1c1-33 18-58 38-56 20 1 36 29 35 62l-2 17c36 7 75 26 125 54l-27-50c-13-10-27-23-55-38 19 5 33 11 44 17-86-159-93-180-122-250z" fill="#2E344088c0d0"/>

</g>

</svg>
